<svg fill="white" xmlns="http://www.w3.org/2000/svg" viewBox="0 0 24 24" width="24" height="24">
  <path d="M16.5 9c-.9 0-1.74.3-2.4.8-1.3-.9-3-.7-4.1.5-.8-.4-1.7-.8-2.7-.8-3 0-5.5 2.7-5.5 6 0 1.9 1.5 3.4 3.5 3.4.8 0 1.7-.4 2.3-.9C8.3 20.5 10 21 12 21c2 0 3.7-.6 5-1.8.6.5 1.4.8 2.3.8 2 0 3.5-1.5 3.5-3.4 0-3.3-2.5-6-5.5-6zM9 16c-.6 0-1-.5-1-1s.4-1 1-1 1 .5 1 1-.4 1-1 1zm6 0c-.6 0-1-.5-1-1s.4-1 1-1 1 .5 1 1-.4 1-1 1zm4.5-9.7c-.5 0-.8.4-.8.8 0 .4.4.8.8.8.5 0 .8-.4.8-.8-.1-.5-.4-.8-.8-.8z"/>
</svg>
